<?xml version="1.0" encoding="UTF-8" standalone="no"?>
<!DOCTYPE svg PUBLIC "-//W3C//DTD SVG 1.1//EN" "http://www.w3.org/Graphics/SVG/1.1/DTD/svg11.dtd">
<svg xmlns="http://www.w3.org/2000/svg" version="1.1" viewBox="0.00 0.00 350.00 350.00">
<g stroke-width="2.00" fill="none" stroke-linecap="butt">
<path stroke="#abb2f5" vector-effect="non-scaling-stroke" d="
  M 175.01 222.79
  C 188.66 222.79 202.27 219.79 214.92 214.32
  A 2.56 2.55 -43.6 0 1 217.05 214.37
  L 218.36 215.01
  A 1.17 1.17 0.0 0 1 218.36 217.11
  L 206.50 222.86
  A 0.64 0.64 0.0 0 0 206.23 223.76
  L 213.75 236.78
  A 0.93 0.92 66.5 0 0 214.83 237.21
  Q 236.41 230.63 254.68 217.35
  A 3.55 3.53 -15.9 0 0 256.12 214.78
  Q 259.94 167.02 234.33 127.19
  C 232.46 124.29 231.37 122.38 228.99 121.50
  Q 215.41 116.50 198.78 112.94
  A 1.22 1.22 0.0 0 0 197.43 113.59
  L 193.84 120.95
  A 0.79 0.79 0.0 0 1 193.02 121.39
  Q 185.93 120.33 175.04 120.33
  Q 164.15 120.32 157.06 121.38
  A 0.79 0.79 0.0 0 1 156.24 120.94
  L 152.65 113.58
  A 1.22 1.22 0.0 0 0 151.30 112.93
  Q 134.67 116.47 121.09 121.47
  C 118.71 122.34 117.61 124.25 115.74 127.15
  Q 90.11 166.97 93.90 214.73
  A 3.55 3.53 16.0 0 0 95.34 217.30
  Q 113.60 230.59 135.17 237.19
  A 0.93 0.92 -66.5 0 0 136.25 236.76
  L 143.78 223.74
  A 0.64 0.64 0.0 0 0 143.51 222.84
  L 131.66 217.08
  A 1.17 1.17 0.0 0 1 131.66 214.98
  L 132.97 214.34
  A 2.56 2.55 43.6 0 1 135.09 214.30
  C 147.74 219.77 161.35 222.78 175.01 222.79"
/>
<path stroke="#abb2f5" vector-effect="non-scaling-stroke" d="
  M 148.0648 164.7504
  A 16.44 14.64 -89.6 0 0 133.3104 181.0878
  A 16.44 14.64 -89.6 0 0 147.8352 197.6296
  A 16.44 14.64 -89.6 0 0 162.5896 181.2922
  A 16.44 14.64 -89.6 0 0 148.0648 164.7504"
/>
<path stroke="#abb2f5" vector-effect="non-scaling-stroke" d="
  M 202.0313 164.7800
  A 16.44 14.63 -90.1 0 0 187.4300 181.2455
  A 16.44 14.63 -90.1 0 0 202.0887 197.6600
  A 16.44 14.63 -90.1 0 0 216.6900 181.1945
  A 16.44 14.63 -90.1 0 0 202.0313 164.7800"
/>
</g>
<path fill="#5665eb" d="
  M 306.96 175.00
  A 131.96 131.96 0.0 0 1 175.00 306.96
  A 131.96 131.96 0.0 0 1 43.04 175.00
  A 131.96 131.96 0.0 0 1 175.00 43.04
  A 131.96 131.96 0.0 0 1 306.96 175.00
  Z
  M 175.01 222.79
  C 188.66 222.79 202.27 219.79 214.92 214.32
  A 2.56 2.55 -43.6 0 1 217.05 214.37
  L 218.36 215.01
  A 1.17 1.17 0.0 0 1 218.36 217.11
  L 206.50 222.86
  A 0.64 0.64 0.0 0 0 206.23 223.76
  L 213.75 236.78
  A 0.93 0.92 66.5 0 0 214.83 237.21
  Q 236.41 230.63 254.68 217.35
  A 3.55 3.53 -15.9 0 0 256.12 214.78
  Q 259.94 167.02 234.33 127.19
  C 232.46 124.29 231.37 122.38 228.99 121.50
  Q 215.41 116.50 198.78 112.94
  A 1.22 1.22 0.0 0 0 197.43 113.59
  L 193.84 120.95
  A 0.79 0.79 0.0 0 1 193.02 121.39
  Q 185.93 120.33 175.04 120.33
  Q 164.15 120.32 157.06 121.38
  A 0.79 0.79 0.0 0 1 156.24 120.94
  L 152.65 113.58
  A 1.22 1.22 0.0 0 0 151.30 112.93
  Q 134.67 116.47 121.09 121.47
  C 118.71 122.34 117.61 124.25 115.74 127.15
  Q 90.11 166.97 93.90 214.73
  A 3.55 3.53 16.0 0 0 95.34 217.30
  Q 113.60 230.59 135.17 237.19
  A 0.93 0.92 -66.5 0 0 136.25 236.76
  L 143.78 223.74
  A 0.64 0.64 0.0 0 0 143.51 222.84
  L 131.66 217.08
  A 1.17 1.17 0.0 0 1 131.66 214.98
  L 132.97 214.34
  A 2.56 2.55 43.6 0 1 135.09 214.30
  C 147.74 219.77 161.35 222.78 175.01 222.79
  Z"
/>
<path fill="#ffffff" d="
  M 175.04 120.33
  Q 185.93 120.33 193.02 121.39
  A 0.79 0.79 0.0 0 0 193.84 120.95
  L 197.43 113.59
  A 1.22 1.22 0.0 0 1 198.78 112.94
  Q 215.41 116.50 228.99 121.50
  C 231.37 122.38 232.46 124.29 234.33 127.19
  Q 259.94 167.02 256.12 214.78
  A 3.55 3.53 -15.9 0 1 254.68 217.35
  Q 236.41 230.63 214.83 237.21
  A 0.93 0.92 66.5 0 1 213.75 236.78
  L 206.23 223.76
  A 0.64 0.64 0.0 0 1 206.50 222.86
  L 218.36 217.11
  A 1.17 1.17 0.0 0 0 218.36 215.01
  L 217.05 214.37
  A 2.56 2.55 -43.6 0 0 214.92 214.32
  C 202.27 219.79 188.66 222.79 175.01 222.79
  C 161.35 222.78 147.74 219.77 135.09 214.30
  A 2.56 2.55 43.6 0 0 132.97 214.34
  L 131.66 214.98
  A 1.17 1.17 0.0 0 0 131.66 217.08
  L 143.51 222.84
  A 0.64 0.64 0.0 0 1 143.78 223.74
  L 136.25 236.76
  A 0.93 0.92 -66.5 0 1 135.17 237.19
  Q 113.60 230.59 95.34 217.30
  A 3.55 3.53 16.0 0 1 93.90 214.73
  Q 90.11 166.97 115.74 127.15
  C 117.61 124.25 118.71 122.34 121.09 121.47
  Q 134.67 116.47 151.30 112.93
  A 1.22 1.22 0.0 0 1 152.65 113.58
  L 156.24 120.94
  A 0.79 0.79 0.0 0 0 157.06 121.38
  Q 164.15 120.32 175.04 120.33
  Z
  M 148.0648 164.7504
  A 16.44 14.64 -89.6 0 0 133.3104 181.0878
  A 16.44 14.64 -89.6 0 0 147.8352 197.6296
  A 16.44 14.64 -89.6 0 0 162.5896 181.2922
  A 16.44 14.64 -89.6 0 0 148.0648 164.7504
  Z
  M 202.0313 164.7800
  A 16.44 14.63 -90.1 0 0 187.4300 181.2455
  A 16.44 14.63 -90.1 0 0 202.0887 197.6600
  A 16.44 14.63 -90.1 0 0 216.6900 181.1945
  A 16.44 14.63 -90.1 0 0 202.0313 164.7800
  Z"
/>
<ellipse fill="#5665eb" cx="0.00" cy="0.00" transform="translate(147.95,181.19) rotate(-89.6)" rx="16.44" ry="14.64"/>
<ellipse fill="#5665eb" cx="0.00" cy="0.00" transform="translate(202.06,181.22) rotate(-90.1)" rx="16.44" ry="14.63"/>
</svg>
