<?xml version="1.0" encoding="UTF-8" standalone="no"?>
<!DOCTYPE svg PUBLIC "-//W3C//DTD SVG 1.1//EN" "http://www.w3.org/Graphics/SVG/1.1/DTD/svg11.dtd">
<svg xmlns="http://www.w3.org/2000/svg" version="1.1" viewBox="0.00 0.00 51.00 32.00">
<path fill="#ffffff" d="
  M 40.71 0.00
  C 46.40 1.10 51.80 3.94 50.26 10.88
  A 0.52 0.52 0.0 0 1 49.65 11.28
  C 45.92 10.55 40.99 10.55 35.23 10.75
  A 0.73 0.72 4.5 0 0 34.54 11.33
  L 32.87 19.68
  A 0.23 0.23 0.0 0 1 32.43 19.71
  L 29.66 11.29
  A 0.80 0.80 0.0 0 0 28.90 10.74
  L 21.86 10.74
  A 1.24 1.23 -72.7 0 0 20.84 11.28
  L 16.54 17.49
  A 0.39 0.38 25.6 0 1 16.10 17.64
  Q 15.95 17.60 16.27 16.65
  A 0.70 0.69 -81.1 0 0 15.61 15.74
  L 8.48 15.74
  A 0.42 0.42 0.0 0 1 8.06 15.32
  L 8.06 14.96
  A 0.44 0.44 0.0 0 1 8.50 14.52
  L 16.71 14.52
  A 0.51 0.50 -84.4 0 0 17.20 14.11
  L 17.79 11.16
  A 0.32 0.32 0.0 0 0 17.48 10.78
  L 9.34 10.78
  A 0.20 0.19 -68.5 0 1 9.20 10.45
  Q 10.51 9.01 15.01 6.50
  Q 24.72 1.08 35.24 0.00
  L 40.71 0.00
  Z"
/>
<path fill="#ffffff" d="
  M 1.30 19.25
  L 2.88 11.32
  A 0.71 0.71 0.0 0 1 3.57 10.76
  L 7.84 10.76
  A 0.35 0.34 25.9 0 1 8.06 11.38
  Q 3.95 14.58 1.65 19.37
  A 0.19 0.19 0.0 0 1 1.30 19.25
  Z"
/>
<path fill="#ffffff" d="
  M 43.12 20.57
  C 45.96 18.15 48.60 15.41 49.86 11.98
  A 0.22 0.21 -46.3 0 1 50.26 11.97
  Q 51.27 14.34 49.19 15.18
  A 0.50 0.50 0.0 0 0 48.99 15.95
  Q 49.09 16.08 49.61 16.27
  A 0.73 0.72 6.2 0 1 50.08 16.85
  C 50.65 21.27 46.63 21.59 43.31 21.20
  A 0.36 0.36 0.0 0 1 43.12 20.57
  Z"
/>
<rect fill="#ffffff" x="-2.09" y="-0.73" transform="translate(41.92,14.23) rotate(-1.4)" width="4.18" height="1.46" rx="0.69"/>
<path fill="#ffffff" d="
  M 25.47 17.34
  Q 25.27 17.62 23.47 17.47
  A 0.40 0.40 0.0 0 1 23.14 16.92
  Q 23.15 16.89 23.70 16.11
  Q 24.25 15.32 24.27 15.30
  A 0.40 0.40 0.0 0 1 24.90 15.42
  Q 25.66 17.06 25.47 17.34
  Z"
/>
<rect fill="#ffffff" x="-2.20" y="-0.62" transform="translate(41.35,17.89) rotate(-0.3)" width="4.40" height="1.24" rx="0.59"/>
<path fill="#ffffff" d="
  M 16.00 32.00
  L 10.53 32.00
  C 5.08 31.01 -0.09 28.37 0.89 21.79
  A 0.65 0.64 4.1 0 1 1.53 21.24
  L 6.38 21.24
  A 0.58 0.58 0.0 0 0 6.95 20.77
  L 7.25 19.25
  A 0.62 0.62 0.0 0 1 7.86 18.75
  L 14.86 18.75
  A 0.30 0.30 0.0 0 1 15.11 19.22
  L 14.05 20.75
  A 0.33 0.33 0.0 0 0 14.32 21.27
  L 19.47 21.24
  A 1.41 1.41 0.0 0 0 20.52 20.77
  Q 20.53 20.76 20.68 20.60
  A 1.14 1.12 20.4 0 1 21.44 20.26
  Q 22.54 20.21 25.52 20.25
  Q 26.39 20.26 26.47 20.46
  Q 26.58 20.73 26.69 20.87
  A 1.14 1.14 0.0 0 0 27.55 21.26
  L 41.64 21.23
  A 0.24 0.24 0.0 0 1 41.84 21.62
  Q 41.06 22.62 39.70 23.49
  Q 28.92 30.44 16.00 32.00
  Z"
/>
</svg>
