<?xml version="1.0" encoding="UTF-8" standalone="no"?>
<!DOCTYPE svg PUBLIC "-//W3C//DTD SVG 1.1//EN" "http://www.w3.org/Graphics/SVG/1.1/DTD/svg11.dtd">
<svg xmlns="http://www.w3.org/2000/svg" version="1.1" viewBox="0.00 0.00 860.00 860.00">
<path fill="#161714" d="
  M 0.00 450.35
  L 0.00 429.79
  Q 2.58 336.42 42.58 253.61
  C 83.12 169.72 151.29 100.33 234.55 58.04
  C 334.22 7.41 450.92 -2.01 557.26 31.52
  C 672.29 67.79 767.33 151.78 817.67 261.37
  C 875.68 387.65 868.63 535.82 798.33 656.02
  Q 767.92 708.02 724.18 749.83
  Q 655.97 815.06 564.61 846.37
  Q 563.56 846.73 558.54 847.13
  C 548.15 847.95 539.37 843.67 535.86 833.92
  Q 534.53 830.24 534.58 821.48
  Q 535.07 735.78 535.03 707.50
  C 534.99 679.44 527.78 649.12 506.41 629.38
  A 0.28 0.28 0.0 0 1 506.58 628.90
  Q 542.45 625.43 576.33 614.84
  Q 592.48 609.79 608.68 601.45
  Q 661.81 574.08 684.34 518.84
  C 697.01 487.78 701.34 454.09 701.59 419.26
  Q 702.07 352.47 657.91 303.07
  A 0.72 0.71 -56.2 0 1 657.77 302.34
  C 670.90 265.77 667.82 225.69 653.44 189.91
  A 1.38 1.38 0.0 0 0 652.35 189.06
  Q 642.10 187.67 631.83 189.38
  Q 614.87 192.21 598.04 199.06
  Q 572.96 209.27 548.76 224.77
  Q 540.24 230.23 536.01 232.92
  A 1.26 1.25 36.1 0 1 535.02 233.07
  Q 428.17 204.78 321.28 233.21
  A 0.65 0.65 0.0 0 1 320.76 233.12
  C 295.98 216.06 268.28 200.72 239.49 192.54
  C 228.15 189.33 215.08 187.08 204.00 189.19
  A 1.06 1.04 5.0 0 0 203.22 189.83
  C 189.07 224.88 185.40 266.48 198.91 302.19
  A 0.93 0.93 0.0 0 1 198.75 303.13
  Q 190.92 312.26 189.34 314.36
  Q 157.63 356.58 155.39 407.51
  Q 153.66 446.82 161.69 484.52
  C 168.54 516.70 182.71 546.71 205.94 570.77
  C 242.97 609.11 298.21 623.85 349.60 629.27
  A 0.28 0.28 0.0 0 1 349.76 629.76
  C 334.18 644.01 325.82 665.25 323.14 686.03
  A 1.07 1.06 82.2 0 1 322.51 686.87
  C 287.45 702.59 246.00 703.58 216.96 675.14
  Q 207.96 666.33 202.36 657.42
  Q 196.83 648.64 194.40 645.12
  C 181.73 626.70 161.65 611.40 139.04 607.65
  C 132.41 606.55 120.60 606.43 115.12 611.10
  C 106.45 618.50 129.18 632.41 133.35 635.18
  C 153.05 648.30 167.02 670.61 175.86 692.32
  Q 179.62 701.54 182.08 705.55
  C 211.71 753.85 271.48 757.32 321.03 746.25
  A 0.49 0.49 0.0 0 1 321.63 746.73
  Q 321.94 799.07 322.21 820.78
  Q 322.32 830.31 320.65 834.50
  C 316.85 844.04 307.93 847.83 297.97 847.18
  Q 293.61 846.89 287.55 844.74
  Q 229.13 824.01 182.61 790.90
  Q 80.21 718.03 32.64 604.57
  Q 2.23 532.04 0.00 450.35
  Z"
/>
<ellipse fill="#161714" cx="0.00" cy="0.00" transform="translate(154.84,619.34) rotate(-155.3)" rx="6.15" ry="4.27"/>
<ellipse fill="#161714" cx="0.00" cy="0.00" transform="translate(176.51,635.29) rotate(-133.1)" rx="7.36" ry="5.10"/>
<ellipse fill="#161714" cx="0.00" cy="0.00" transform="translate(191.20,657.81) rotate(-124.6)" rx="8.39" ry="5.81"/>
<ellipse fill="#161714" cx="0.00" cy="0.00" transform="translate(213.70,686.35) rotate(-136.8)" rx="9.18" ry="6.35"/>
<ellipse fill="#161714" cx="0.00" cy="0.00" transform="translate(243.11,699.37) rotate(-163.2)" rx="9.22" ry="6.35"/>
<ellipse fill="#161714" cx="0.00" cy="0.00" transform="translate(278.76,706.18) rotate(-1.0)" rx="9.18" ry="6.37"/>
<ellipse fill="#161714" cx="0.00" cy="0.00" transform="translate(314.16,706.30) rotate(-10.3)" rx="9.20" ry="6.38"/>
</svg>
