<?xml version="1.0" encoding="UTF-8" standalone="no"?>
<!DOCTYPE svg PUBLIC "-//W3C//DTD SVG 1.1//EN" "http://www.w3.org/Graphics/SVG/1.1/DTD/svg11.dtd">
<svg xmlns="http://www.w3.org/2000/svg" version="1.1" viewBox="0.00 0.00 964.00 911.00">
<path fill="#888888" d="
  M 545.40 504.86
  A 0.32 0.31 28.4 0 0 544.82 505.03
  Q 545.06 522.13 545.61 531.97
  C 546.62 549.87 546.22 560.23 546.33 579.16
  Q 546.38 588.13 545.61 602.84
  C 544.49 623.96 543.64 646.14 539.94 665.74
  C 538.02 675.95 536.16 686.35 533.46 696.27
  Q 529.19 712.01 522.49 729.76
  Q 520.73 734.41 517.55 737.73
  A 1.71 1.71 0.0 0 1 515.33 737.96
  Q 510.25 734.45 505.26 728.98
  Q 488.83 711.01 460.06 680.83
  C 458.64 679.34 457.10 678.29 455.92 676.95
  A 1.37 1.35 -62.1 0 1 455.59 675.85
  Q 457.35 663.64 459.87 653.32
  C 460.87 649.25 461.31 644.91 462.25 640.45
  Q 462.44 639.57 462.92 635.26
  Q 466.60 602.43 467.75 580.00
  Q 468.39 567.59 467.77 546.73
  Q 467.20 527.61 464.00 510.94
  Q 462.69 504.08 462.55 503.55
  Q 462.50 503.34 460.40 491.79
  Q 459.03 484.18 457.72 480.19
  Q 456.02 474.97 451.13 462.47
  Q 449.89 459.30 443.30 446.06
  Q 439.39 438.20 433.63 428.92
  Q 428.96 421.37 422.10 413.04
  Q 410.57 399.00 398.50 388.59
  Q 395.61 386.10 379.41 373.59
  Q 374.57 369.85 369.76 366.83
  C 363.59 362.97 359.91 360.98 356.55 357.20
  A 1.71 1.70 -69.0 0 1 356.14 356.27
  Q 355.85 353.23 356.45 351.97
  C 361.20 341.99 366.73 330.01 363.41 318.88
  Q 361.05 310.97 355.47 304.19
  C 349.19 296.55 343.92 288.74 340.59 278.54
  C 337.60 269.36 337.82 257.90 339.39 248.75
  C 340.68 241.25 341.39 234.50 340.06 227.16
  Q 339.60 224.59 336.40 216.37
  C 333.40 208.64 330.74 199.15 328.34 191.88
  Q 325.66 183.80 324.68 178.01
  Q 321.95 162.00 323.13 147.28
  Q 323.49 142.78 325.07 133.15
  C 326.18 126.38 328.27 121.65 330.10 115.28
  C 334.84 98.83 345.02 82.93 357.63 69.15
  Q 376.01 49.09 399.77 37.78
  Q 411.58 32.16 420.10 29.41
  C 434.93 24.61 452.78 22.55 469.72 23.40
  Q 495.81 24.71 518.53 34.51
  Q 527.70 38.46 540.20 46.17
  Q 549.39 51.84 558.12 60.14
  C 570.84 72.23 582.16 85.36 588.80 100.17
  Q 594.99 113.99 597.37 122.84
  Q 598.13 125.67 599.81 136.51
  C 600.58 141.50 601.40 145.65 601.63 151.12
  Q 602.29 166.86 600.19 178.55
  Q 599.47 182.57 598.12 186.68
  C 596.97 190.17 596.46 193.90 595.21 197.46
  Q 587.75 218.80 585.85 225.85
  Q 584.48 230.95 584.36 238.21
  Q 584.31 241.22 585.92 250.59
  Q 586.95 256.58 586.60 265.93
  C 586.20 276.58 582.32 285.98 577.15 294.17
  Q 575.81 296.28 567.44 306.67
  Q 563.70 311.33 562.02 318.02
  C 558.43 332.26 564.43 347.06 574.99 357.07
  Q 579.25 361.11 585.95 365.60
  C 592.18 369.76 603.04 373.54 611.67 373.50
  Q 619.44 373.46 621.50 373.24
  C 631.35 372.16 641.09 367.84 647.25 360.00
  Q 649.06 357.71 652.96 351.62
  C 661.37 338.49 661.58 321.42 657.41 307.78
  C 656.07 303.39 653.84 297.82 651.87 293.25
  C 644.16 275.41 638.56 262.65 633.92 250.57
  Q 629.12 238.06 627.36 222.99
  C 625.03 202.96 632.19 185.89 640.34 168.32
  C 650.35 146.73 669.47 130.35 692.93 125.91
  Q 697.40 125.06 703.57 125.03
  Q 711.21 124.99 714.24 125.20
  C 720.27 125.62 729.01 127.91 734.72 131.18
  Q 745.09 137.10 749.69 141.83
  Q 761.82 154.28 765.07 171.17
  C 765.55 173.72 765.30 178.19 765.25 181.50
  Q 765.11 190.72 761.28 196.85
  C 756.02 205.25 750.13 212.32 741.86 216.77
  A 0.67 0.67 0.0 0 1 740.88 216.32
  C 739.19 208.32 737.83 197.79 732.88 190.68
  Q 725.95 180.73 715.07 176.89
  Q 707.43 174.20 697.64 176.43
  Q 684.03 179.53 683.96 193.75
  Q 683.90 204.42 687.40 213.65
  C 690.54 221.90 695.61 232.20 700.90 240.03
  Q 710.66 254.48 712.05 256.68
  Q 720.00 269.25 726.49 283.78
  C 740.20 314.49 739.43 350.69 724.28 381.03
  C 720.81 387.97 716.55 395.78 711.10 402.41
  Q 697.64 418.78 679.68 429.67
  C 673.57 433.37 668.58 435.36 660.95 438.45
  Q 648.78 443.37 636.22 445.58
  C 630.05 446.66 625.25 446.57 617.25 446.88
  Q 611.35 447.11 604.71 445.71
  A 0.85 0.85 0.0 0 0 603.74 446.82
  Q 604.18 448.05 605.25 449.74
  C 614.72 464.73 620.50 474.61 629.58 488.19
  Q 635.17 496.57 647.91 516.44
  Q 649.26 518.55 650.42 519.73
  A 1.03 1.03 0.0 0 0 652.04 519.56
  Q 652.28 519.19 665.42 498.76
  Q 671.56 489.21 679.10 478.17
  C 695.58 454.00 712.69 428.93 728.10 403.48
  C 735.90 390.60 742.58 379.66 750.32 369.11
  Q 755.21 362.45 762.37 360.49
  A 2.92 2.83 -51.7 0 1 763.12 360.39
  L 846.41 360.59
  A 0.28 0.28 0.0 0 1 846.69 360.87
  L 846.69 727.21
  A 1.16 1.15 -0.5 0 1 845.55 728.36
  Q 814.14 729.00 777.27 728.82
  Q 765.75 728.76 763.83 728.13
  Q 757.23 725.97 752.98 720.44
  A 6.09 6.08 -63.8 0 1 751.72 716.73
  Q 751.77 636.98 751.67 555.82
  C 751.65 543.61 752.59 530.14 751.43 517.87
  A 0.30 0.29 -26.1 0 0 750.92 517.70
  Q 748.71 520.00 747.96 521.20
  Q 737.94 537.19 720.77 562.54
  C 716.43 568.94 712.10 576.15 706.76 583.49
  Q 705.44 585.31 701.09 591.85
  Q 693.14 603.80 671.13 636.45
  C 666.40 643.45 662.68 650.38 657.79 656.77
  Q 656.78 658.09 655.24 658.94
  A 0.97 0.96 -43.4 0 1 654.26 658.92
  Q 649.63 656.12 647.29 654.03
  C 642.78 649.97 640.27 644.11 636.26 638.62
  C 622.86 620.28 607.50 597.77 595.17 578.29
  Q 591.53 572.55 578.06 553.42
  Q 568.08 539.25 555.82 520.08
  C 551.91 513.96 549.12 510.58 545.40 504.86
  Z
  M 370.09 254.43
  Q 370.30 256.26 371.08 262.51
  C 371.41 265.09 375.30 270.86 376.89 273.01
  Q 381.93 279.83 390.23 283.07
  Q 393.55 284.37 406.56 288.90
  C 409.12 289.79 411.44 290.17 414.31 291.07
  A 1.10 1.10 0.0 0 0 415.62 289.51
  C 413.84 286.11 412.57 281.97 410.72 278.79
  Q 403.26 265.96 389.48 260.05
  Q 380.55 256.22 370.60 253.97
  A 0.43 0.42 -86.6 0 0 370.09 254.43
  Z
  M 510.20 290.90
  Q 514.22 290.60 519.31 289.04
  Q 522.49 288.07 533.20 284.44
  C 541.27 281.70 550.86 272.74 553.24 264.48
  Q 554.33 260.73 555.19 255.87
  A 0.67 0.66 -0.4 0 0 554.41 255.11
  Q 551.55 255.64 548.52 255.81
  C 529.54 256.87 515.76 273.31 509.62 290.14
  A 0.57 0.57 0.0 0 0 510.20 290.90
  Z"
/>
<path fill="#888888" d="
  M 266.02 338.68
  Q 240.52 338.22 223.71 341.45
  Q 213.78 343.36 201.11 346.15
  Q 197.58 346.92 193.99 346.35
  A 2.19 2.14 71.6 0 1 192.80 345.74
  L 188.21 341.16
  A 3.22 3.20 23.6 0 1 187.28 338.81
  Q 187.94 318.15 193.65 297.83
  Q 195.42 291.54 197.61 286.69
  C 199.96 281.51 201.51 277.02 204.09 272.29
  Q 213.22 255.55 218.05 248.79
  C 228.93 233.59 237.97 219.90 241.58 202.10
  C 242.19 199.10 242.23 195.70 241.32 192.87
  Q 240.68 190.88 240.44 188.83
  C 239.76 183.24 235.52 178.37 230.51 176.69
  Q 224.55 174.70 216.93 174.83
  Q 212.07 174.91 207.01 177.61
  C 191.97 185.65 186.69 198.22 183.80 214.44
  A 1.68 1.68 0.0 0 1 182.06 215.82
  Q 181.16 215.77 180.29 215.07
  Q 169.31 206.32 164.10 196.94
  C 157.04 184.21 159.73 166.47 166.45 153.91
  Q 171.33 144.79 179.91 138.41
  C 190.66 130.43 204.15 124.62 217.34 125.05
  C 222.44 125.22 227.03 124.73 232.17 125.78
  Q 241.84 127.74 246.33 129.93
  Q 265.20 139.13 276.37 154.16
  C 285.65 166.64 293.26 182.23 296.34 197.94
  Q 296.63 199.40 297.39 207.31
  C 298.15 215.26 297.26 223.51 296.36 229.87
  Q 296.04 232.12 293.66 240.57
  Q 291.92 246.73 290.24 251.07
  Q 284.76 265.22 274.55 289.02
  Q 266.57 307.61 266.28 328.38
  C 266.25 331.05 266.49 334.93 266.60 338.10
  A 0.56 0.56 0.0 0 1 266.02 338.68
  Z"
/>
<path fill="#888888" d="
  M 202.71 731.60
  A 0.40 0.39 23.0 0 0 202.47 731.02
  Q 189.47 727.40 177.78 722.22
  Q 156.38 712.74 139.27 699.98
  Q 129.79 692.91 117.23 680.57
  C 103.84 667.42 92.65 651.25 83.76 634.99
  Q 78.44 625.25 75.81 617.23
  Q 70.55 601.17 70.44 600.87
  Q 67.69 593.08 65.94 584.30
  Q 63.62 572.61 62.51 560.76
  C 60.19 535.69 62.86 510.29 71.23 486.72
  C 73.16 481.25 74.39 476.40 76.80 470.80
  Q 93.68 431.50 122.66 404.68
  Q 139.48 389.11 163.72 375.19
  Q 169.76 371.72 175.88 369.10
  C 182.23 366.37 186.91 363.63 192.60 362.05
  Q 211.45 356.83 218.52 355.55
  Q 221.09 355.09 236.32 353.17
  Q 247.25 351.79 254.23 351.88
  C 265.92 352.02 276.32 353.21 290.23 355.37
  Q 300.17 356.91 313.60 360.80
  Q 323.76 363.74 333.62 368.73
  Q 348.03 376.03 355.42 380.36
  Q 362.29 384.39 373.31 392.68
  Q 382.89 399.89 389.77 406.85
  C 412.11 429.51 430.10 457.68 438.67 488.29
  Q 440.36 494.32 441.49 499.44
  C 442.61 504.56 443.25 509.12 444.12 514.53
  Q 447.31 534.35 446.64 553.12
  Q 446.41 559.47 445.84 563.95
  Q 444.99 570.55 444.99 571.14
  Q 444.95 574.65 443.85 578.26
  Q 443.33 579.95 442.00 587.51
  Q 441.30 591.49 439.92 596.68
  Q 434.75 616.12 425.46 634.21
  Q 423.89 637.25 422.35 639.43
  A 0.37 0.36 -51.0 0 1 421.81 639.49
  C 418.66 636.56 415.99 633.26 413.63 630.91
  Q 397.12 614.45 388.31 605.33
  C 380.72 597.48 370.63 588.49 363.83 581.48
  Q 362.02 579.61 361.04 577.99
  A 3.51 3.43 -62.8 0 1 360.55 576.40
  Q 360.34 573.16 361.03 570.02
  Q 361.88 566.19 363.55 557.56
  Q 364.59 552.14 364.59 547.14
  C 364.58 540.67 364.83 535.53 363.91 529.64
  Q 362.85 522.82 362.84 522.72
  C 358.45 498.00 346.79 477.84 329.44 460.31
  Q 324.50 455.32 319.50 451.99
  Q 302.62 440.76 284.72 435.56
  C 278.87 433.86 272.37 433.69 265.91 432.87
  Q 261.23 432.28 253.44 433.19
  Q 226.91 436.29 204.09 451.59
  Q 191.59 459.98 183.26 470.27
  Q 157.32 502.32 156.66 543.61
  C 156.58 548.53 157.49 554.30 158.02 558.97
  Q 158.32 561.57 159.01 565.06
  Q 164.53 593.12 182.79 615.56
  Q 198.11 634.39 220.39 644.11
  Q 225.78 646.46 228.25 647.12
  C 231.92 648.10 235.27 649.51 239.04 650.34
  Q 252.20 653.24 266.52 653.29
  C 271.76 653.31 277.04 651.57 281.82 651.58
  A 2.89 2.84 -23.3 0 1 283.77 652.34
  Q 294.68 662.39 305.77 674.49
  Q 323.08 693.38 329.31 700.45
  C 331.89 703.37 335.49 706.31 337.88 709.32
  A 2.34 2.26 19.7 0 1 338.32 710.21
  C 339.74 716.07 335.03 719.48 330.39 721.66
  Q 315.75 728.57 297.40 733.53
  C 291.01 735.25 285.80 735.83 276.61 737.38
  A 2.57 2.57 0.0 0 0 274.55 739.25
  C 270.67 753.53 275.76 769.25 283.60 781.42
  C 291.82 794.18 305.37 800.25 320.49 802.89
  C 323.01 803.33 327.58 803.18 330.82 802.65
  C 343.75 800.53 355.99 796.43 367.52 789.09
  Q 378.55 782.07 388.64 772.66
  Q 389.54 771.82 391.31 770.58
  A 1.41 1.40 -38.9 0 1 393.15 770.77
  Q 401.13 779.38 410.10 789.40
  Q 415.55 795.48 445.02 823.75
  A 2.05 2.05 0.0 0 1 445.58 824.73
  Q 446.84 830.00 445.52 835.88
  A 2.14 2.10 75.7 0 1 444.89 836.96
  Q 425.03 855.05 402.60 868.06
  Q 396.06 871.86 389.35 874.57
  C 375.83 880.03 363.20 884.87 349.18 886.47
  Q 342.66 887.22 338.36 887.80
  C 328.25 889.17 319.45 888.41 309.24 887.29
  Q 298.48 886.11 291.23 884.11
  Q 269.30 878.04 251.07 866.90
  Q 245.25 863.34 236.70 856.23
  C 218.24 840.88 205.59 820.46 199.73 796.94
  Q 198.70 792.78 198.53 790.04
  C 198.33 786.96 197.13 784.29 196.94 780.80
  Q 195.96 762.95 197.97 749.98
  Q 198.31 747.75 200.64 739.03
  C 201.30 736.54 201.38 733.82 202.71 731.60
  Z"
/>
<path fill="#888888" d="
  M 595.55 760.09
  Q 594.60 759.28 593.72 757.77
  Q 589.41 750.36 586.45 741.11
  C 585.53 738.25 585.11 734.62 584.78 731.59
  A 23.98 23.78 45.7 0 1 584.82 726.08
  C 585.23 722.77 585.40 718.24 586.43 714.44
  Q 590.13 700.88 600.31 692.54
  C 608.77 685.60 621.18 679.78 632.91 679.00
  C 641.01 678.47 647.03 677.74 654.00 678.87
  Q 659.65 679.79 664.30 680.67
  A 8.42 8.15 63.2 0 1 666.41 681.40
  Q 682.76 689.67 690.97 696.81
  Q 694.97 700.29 702.78 708.69
  Q 710.15 716.61 713.57 721.92
  Q 721.10 733.61 724.27 747.05
  Q 724.64 748.63 726.57 758.46
  C 729.01 770.86 727.74 784.27 725.04 797.69
  Q 722.49 810.37 717.38 821.28
  Q 705.73 846.16 683.39 863.16
  Q 671.03 872.57 653.83 880.09
  C 643.32 884.68 632.66 887.45 621.48 887.75
  C 616.90 887.87 611.86 888.54 606.83 888.42
  Q 601.43 888.30 588.48 886.86
  C 570.85 884.90 553.36 879.94 537.13 872.88
  C 533.40 871.26 529.64 869.89 525.42 867.86
  Q 513.13 861.93 502.50 855.04
  Q 478.16 839.25 455.90 818.74
  Q 434.61 799.11 415.49 779.14
  Q 401.22 764.25 397.86 760.89
  Q 390.73 753.77 386.65 749.06
  C 377.12 738.07 367.84 728.76 359.44 718.88
  Q 352.54 710.77 343.33 700.73
  Q 326.88 682.83 319.28 674.23
  C 311.71 665.67 305.28 658.97 296.19 649.30
  C 283.99 636.34 273.22 626.57 259.91 617.05
  Q 248.44 608.83 233.77 606.97
  C 227.32 606.15 220.87 607.05 213.74 607.95
  Q 210.42 608.37 204.02 610.80
  Q 203.62 610.95 203.50 610.92
  A 1.39 1.39 0.0 0 1 202.61 608.85
  Q 207.27 601.03 207.92 599.86
  C 217.65 582.48 236.66 570.46 255.33 565.39
  C 260.14 564.09 265.66 561.98 271.50 561.49
  Q 280.36 560.75 291.26 561.10
  Q 300.31 561.39 305.51 563.04
  Q 334.20 572.08 356.46 590.99
  Q 362.10 595.77 369.40 603.71
  C 378.81 613.93 386.92 621.79 395.18 631.07
  C 401.40 638.06 406.74 643.23 413.00 650.14
  Q 423.46 661.69 438.87 677.16
  Q 441.82 680.12 456.08 696.28
  C 466.90 708.56 475.46 716.90 487.81 729.64
  Q 503.75 746.08 518.76 759.49
  Q 527.23 767.05 544.11 779.41
  Q 558.13 789.67 576.62 797.00
  C 587.82 801.44 599.53 803.57 610.75 803.14
  Q 616.08 802.94 623.62 800.85
  Q 644.85 794.96 655.37 775.64
  C 659.83 767.44 660.55 760.51 661.05 751.01
  C 661.81 736.72 652.80 727.89 638.97 725.86
  Q 625.78 723.93 614.47 731.23
  Q 598.88 741.29 596.62 759.67
  A 0.65 0.65 0.0 0 1 595.55 760.09
  Z"
/>
</svg>
